<svg version="1.1" xmlns="http://www.w3.org/2000/svg" xmlns:xlink="http://www.w3.org/1999/xlink" width="1094.17724609375" height="310"><defs/><g><text fill="#eeeeee" stroke="none" font-family="Arial" font-size="24px" font-style="normal" font-weight="normal" text-decoration="none" x="0" y="0">UNREGISTERED</text><text fill="#eeeeee" stroke="none" font-family="Arial" font-size="24px" font-style="normal" font-weight="normal" text-decoration="none" x="0" y="30">UNREGISTERED</text><text fill="#eeeeee" stroke="none" font-family="Arial" font-size="24px" font-style="normal" font-weight="normal" text-decoration="none" x="0" y="60">UNREGISTERED</text><text fill="#eeeeee" stroke="none" font-family="Arial" font-size="24px" font-style="normal" font-weight="normal" text-decoration="none" x="0" y="90">UNREGISTERED</text><text fill="#eeeeee" stroke="none" font-family="Arial" font-size="24px" font-style="normal" font-weight="normal" text-decoration="none" x="0" y="120">UNREGISTERED</text><text fill="#eeeeee" stroke="none" font-family="Arial" font-size="24px" font-style="normal" font-weight="normal" text-decoration="none" x="0" y="150">UNREGISTERED</text><text fill="#eeeeee" stroke="none" font-family="Arial" font-size="24px" font-style="normal" font-weight="normal" text-decoration="none" x="0" y="180">UNREGISTERED</text><text fill="#eeeeee" stroke="none" font-family="Arial" font-size="24px" font-style="normal" font-weight="normal" text-decoration="none" x="0" y="210">UNREGISTERED</text><text fill="#eeeeee" stroke="none" font-family="Arial" font-size="24px" font-style="normal" font-weight="normal" text-decoration="none" x="0" y="240">UNREGISTERED</text><text fill="#eeeeee" stroke="none" font-family="Arial" font-size="24px" font-style="normal" font-weight="normal" text-decoration="none" x="0" y="270">UNREGISTERED</text><text fill="#eeeeee" stroke="none" font-family="Arial" font-size="24px" font-style="normal" font-weight="normal" text-decoration="none" x="0" y="300">UNREGISTERED</text><text fill="#eeeeee" stroke="none" font-family="Arial" font-size="24px" font-style="normal" font-weight="normal" text-decoration="none" x="200" y="0">UNREGISTERED</text><text fill="#eeeeee" stroke="none" font-family="Arial" font-size="24px" font-style="normal" font-weight="normal" text-decoration="none" x="200" y="30">UNREGISTERED</text><text fill="#eeeeee" stroke="none" font-family="Arial" font-size="24px" font-style="normal" font-weight="normal" text-decoration="none" x="200" y="60">UNREGISTERED</text><text fill="#eeeeee" stroke="none" font-family="Arial" font-size="24px" font-style="normal" font-weight="normal" text-decoration="none" x="200" y="90">UNREGISTERED</text><text fill="#eeeeee" stroke="none" font-family="Arial" font-size="24px" font-style="normal" font-weight="normal" text-decoration="none" x="200" y="120">UNREGISTERED</text><text fill="#eeeeee" stroke="none" font-family="Arial" font-size="24px" font-style="normal" font-weight="normal" text-decoration="none" x="200" y="150">UNREGISTERED</text><text fill="#eeeeee" stroke="none" font-family="Arial" font-size="24px" font-style="normal" font-weight="normal" text-decoration="none" x="200" y="180">UNREGISTERED</text><text fill="#eeeeee" stroke="none" font-family="Arial" font-size="24px" font-style="normal" font-weight="normal" text-decoration="none" x="200" y="210">UNREGISTERED</text><text fill="#eeeeee" stroke="none" font-family="Arial" font-size="24px" font-style="normal" font-weight="normal" text-decoration="none" x="200" y="240">UNREGISTERED</text><text fill="#eeeeee" stroke="none" font-family="Arial" font-size="24px" font-style="normal" font-weight="normal" text-decoration="none" x="200" y="270">UNREGISTERED</text><text fill="#eeeeee" stroke="none" font-family="Arial" font-size="24px" font-style="normal" font-weight="normal" text-decoration="none" x="200" y="300">UNREGISTERED</text><text fill="#eeeeee" stroke="none" font-family="Arial" font-size="24px" font-style="normal" font-weight="normal" text-decoration="none" x="400" y="0">UNREGISTERED</text><text fill="#eeeeee" stroke="none" font-family="Arial" font-size="24px" font-style="normal" font-weight="normal" text-decoration="none" x="400" y="30">UNREGISTERED</text><text fill="#eeeeee" stroke="none" font-family="Arial" font-size="24px" font-style="normal" font-weight="normal" text-decoration="none" x="400" y="60">UNREGISTERED</text><text fill="#eeeeee" stroke="none" font-family="Arial" font-size="24px" font-style="normal" font-weight="normal" text-decoration="none" x="400" y="90">UNREGISTERED</text><text fill="#eeeeee" stroke="none" font-family="Arial" font-size="24px" font-style="normal" font-weight="normal" text-decoration="none" x="400" y="120">UNREGISTERED</text><text fill="#eeeeee" stroke="none" font-family="Arial" font-size="24px" font-style="normal" font-weight="normal" text-decoration="none" x="400" y="150">UNREGISTERED</text><text fill="#eeeeee" stroke="none" font-family="Arial" font-size="24px" font-style="normal" font-weight="normal" text-decoration="none" x="400" y="180">UNREGISTERED</text><text fill="#eeeeee" stroke="none" font-family="Arial" font-size="24px" font-style="normal" font-weight="normal" text-decoration="none" x="400" y="210">UNREGISTERED</text><text fill="#eeeeee" stroke="none" font-family="Arial" font-size="24px" font-style="normal" font-weight="normal" text-decoration="none" x="400" y="240">UNREGISTERED</text><text fill="#eeeeee" stroke="none" font-family="Arial" font-size="24px" font-style="normal" font-weight="normal" text-decoration="none" x="400" y="270">UNREGISTERED</text><text fill="#eeeeee" stroke="none" font-family="Arial" font-size="24px" font-style="normal" font-weight="normal" text-decoration="none" x="400" y="300">UNREGISTERED</text><text fill="#eeeeee" stroke="none" font-family="Arial" font-size="24px" font-style="normal" font-weight="normal" text-decoration="none" x="600" y="0">UNREGISTERED</text><text fill="#eeeeee" stroke="none" font-family="Arial" font-size="24px" font-style="normal" font-weight="normal" text-decoration="none" x="600" y="30">UNREGISTERED</text><text fill="#eeeeee" stroke="none" font-family="Arial" font-size="24px" font-style="normal" font-weight="normal" text-decoration="none" x="600" y="60">UNREGISTERED</text><text fill="#eeeeee" stroke="none" font-family="Arial" font-size="24px" font-style="normal" font-weight="normal" text-decoration="none" x="600" y="90">UNREGISTERED</text><text fill="#eeeeee" stroke="none" font-family="Arial" font-size="24px" font-style="normal" font-weight="normal" text-decoration="none" x="600" y="120">UNREGISTERED</text><text fill="#eeeeee" stroke="none" font-family="Arial" font-size="24px" font-style="normal" font-weight="normal" text-decoration="none" x="600" y="150">UNREGISTERED</text><text fill="#eeeeee" stroke="none" font-family="Arial" font-size="24px" font-style="normal" font-weight="normal" text-decoration="none" x="600" y="180">UNREGISTERED</text><text fill="#eeeeee" stroke="none" font-family="Arial" font-size="24px" font-style="normal" font-weight="normal" text-decoration="none" x="600" y="210">UNREGISTERED</text><text fill="#eeeeee" stroke="none" font-family="Arial" font-size="24px" font-style="normal" font-weight="normal" text-decoration="none" x="600" y="240">UNREGISTERED</text><text fill="#eeeeee" stroke="none" font-family="Arial" font-size="24px" font-style="normal" font-weight="normal" text-decoration="none" x="600" y="270">UNREGISTERED</text><text fill="#eeeeee" stroke="none" font-family="Arial" font-size="24px" font-style="normal" font-weight="normal" text-decoration="none" x="600" y="300">UNREGISTERED</text><text fill="#eeeeee" stroke="none" font-family="Arial" font-size="24px" font-style="normal" font-weight="normal" text-decoration="none" x="800" y="0">UNREGISTERED</text><text fill="#eeeeee" stroke="none" font-family="Arial" font-size="24px" font-style="normal" font-weight="normal" text-decoration="none" x="800" y="30">UNREGISTERED</text><text fill="#eeeeee" stroke="none" font-family="Arial" font-size="24px" font-style="normal" font-weight="normal" text-decoration="none" x="800" y="60">UNREGISTERED</text><text fill="#eeeeee" stroke="none" font-family="Arial" font-size="24px" font-style="normal" font-weight="normal" text-decoration="none" x="800" y="90">UNREGISTERED</text><text fill="#eeeeee" stroke="none" font-family="Arial" font-size="24px" font-style="normal" font-weight="normal" text-decoration="none" x="800" y="120">UNREGISTERED</text><text fill="#eeeeee" stroke="none" font-family="Arial" font-size="24px" font-style="normal" font-weight="normal" text-decoration="none" x="800" y="150">UNREGISTERED</text><text fill="#eeeeee" stroke="none" font-family="Arial" font-size="24px" font-style="normal" font-weight="normal" text-decoration="none" x="800" y="180">UNREGISTERED</text><text fill="#eeeeee" stroke="none" font-family="Arial" font-size="24px" font-style="normal" font-weight="normal" text-decoration="none" x="800" y="210">UNREGISTERED</text><text fill="#eeeeee" stroke="none" font-family="Arial" font-size="24px" font-style="normal" font-weight="normal" text-decoration="none" x="800" y="240">UNREGISTERED</text><text fill="#eeeeee" stroke="none" font-family="Arial" font-size="24px" font-style="normal" font-weight="normal" text-decoration="none" x="800" y="270">UNREGISTERED</text><text fill="#eeeeee" stroke="none" font-family="Arial" font-size="24px" font-style="normal" font-weight="normal" text-decoration="none" x="800" y="300">UNREGISTERED</text><text fill="#eeeeee" stroke="none" font-family="Arial" font-size="24px" font-style="normal" font-weight="normal" text-decoration="none" x="1000" y="0">UNREGISTERED</text><text fill="#eeeeee" stroke="none" font-family="Arial" font-size="24px" font-style="normal" font-weight="normal" text-decoration="none" x="1000" y="30">UNREGISTERED</text><text fill="#eeeeee" stroke="none" font-family="Arial" font-size="24px" font-style="normal" font-weight="normal" text-decoration="none" x="1000" y="60">UNREGISTERED</text><text fill="#eeeeee" stroke="none" font-family="Arial" font-size="24px" font-style="normal" font-weight="normal" text-decoration="none" x="1000" y="90">UNREGISTERED</text><text fill="#eeeeee" stroke="none" font-family="Arial" font-size="24px" font-style="normal" font-weight="normal" text-decoration="none" x="1000" y="120">UNREGISTERED</text><text fill="#eeeeee" stroke="none" font-family="Arial" font-size="24px" font-style="normal" font-weight="normal" text-decoration="none" x="1000" y="150">UNREGISTERED</text><text fill="#eeeeee" stroke="none" font-family="Arial" font-size="24px" font-style="normal" font-weight="normal" text-decoration="none" x="1000" y="180">UNREGISTERED</text><text fill="#eeeeee" stroke="none" font-family="Arial" font-size="24px" font-style="normal" font-weight="normal" text-decoration="none" x="1000" y="210">UNREGISTERED</text><text fill="#eeeeee" stroke="none" font-family="Arial" font-size="24px" font-style="normal" font-weight="normal" text-decoration="none" x="1000" y="240">UNREGISTERED</text><text fill="#eeeeee" stroke="none" font-family="Arial" font-size="24px" font-style="normal" font-weight="normal" text-decoration="none" x="1000" y="270">UNREGISTERED</text><text fill="#eeeeee" stroke="none" font-family="Arial" font-size="24px" font-style="normal" font-weight="normal" text-decoration="none" x="1000" y="300">UNREGISTERED</text><g transform="translate(-158,-174) scale(1,1)"><path fill="#ffffff" stroke="none" d="M 188.02116672585228 353.68 C 188.02116672585228 348.886167936 191.90700905079774 345 196.700439453125 345 C 201.49386985545226 345 205.37971218039772 348.886167936 205.37971218039772 353.68 C 205.37971218039772 358.473832064 201.49386985545226 362.36 196.700439453125 362.36 C 191.90700905079774 362.36 188.02116672585228 358.473832064 188.02116672585228 353.68 Z"/></g><g transform="translate(-158,-174) scale(1,1)"><path fill="none" stroke="#000000" d="M 188.02116672585228 353.68 C 188.02116672585228 348.886167936 191.90700905079774 345 196.700439453125 345 C 201.49386985545226 345 205.37971218039772 348.886167936 205.37971218039772 353.68 C 205.37971218039772 358.473832064 201.49386985545226 362.36 196.700439453125 362.36 C 191.90700905079774 362.36 188.02116672585228 358.473832064 188.02116672585228 353.68 Z" stroke-miterlimit="10"/></g><g transform="translate(-158,-174) scale(1,1)"><path fill="none" stroke="#000000" d="M 196.700439453125 362.36 L 196.700439453125 379.64" stroke-miterlimit="10"/></g><g transform="translate(-158,-174) scale(1,1)"><path fill="none" stroke="#000000" d="M 187.51062127130683 368.84 L 205.89025763494317 368.84" stroke-miterlimit="10"/></g><g transform="translate(-158,-174) scale(1,1)"><path fill="none" stroke="#000000" d="M 196.700439453125 379.64 L 183.93680308948865 397" stroke-miterlimit="10"/></g><g transform="translate(-158,-174) scale(1,1)"><path fill="none" stroke="#000000" d="M 196.700439453125 379.64 L 209.46407581676135 397" stroke-miterlimit="10"/></g><g transform="translate(-158,-174) scale(1,1)"><g><path fill="none" stroke="none"/><text fill="#000000" stroke="none" font-family="Arial" font-size="13px" font-style="normal" font-weight="bold" text-decoration="none" x="172.5" y="416">Usuario</text></g></g><g transform="translate(-158,-174) scale(1,1)"><path fill="#C0C0C0" stroke="none" d="M 519 208 C 519 198.6111584 590.6344320000001 191 679 191 C 767.3655679999999 191 839 198.6111584 839 208 C 839 217.3888416 767.3655679999999 225 679 225 C 590.6344320000001 225 519 217.3888416 519 208 Z" opacity="0.2"/></g><g transform="translate(-158,-174) scale(1,1)"><path fill="#ffffff" stroke="none" d="M 512 201 C 512 191.6111584 583.6344320000001 184 672 184 C 760.3655679999999 184 832 191.6111584 832 201 C 832 210.3888416 760.3655679999999 218 672 218 C 583.6344320000001 218 512 210.3888416 512 201 Z"/></g><g transform="translate(-158,-174) scale(1,1)"><path fill="none" stroke="#000000" d="M 512 201 C 512 191.6111584 583.6344320000001 184 672 184 C 760.3655679999999 184 832 191.6111584 832 201 C 832 210.3888416 760.3655679999999 218 672 218 C 583.6344320000001 218 512 210.3888416 512 201 Z" stroke-miterlimit="10"/></g><g transform="translate(-158,-174) scale(1,1)"><g><path fill="none" stroke="none"/><text fill="#000000" stroke="none" font-family="Arial" font-size="13px" font-style="normal" font-weight="bold" text-decoration="none" x="617.095947265625" y="206.5">CSU01 - Cadastro</text></g></g><g transform="translate(-158,-174) scale(1,1)"><path fill="none" stroke="#000000" d="M 226 371 L 625 219" stroke-miterlimit="10"/></g><g transform="translate(-158,-174) scale(1,1)"><path fill="#C0C0C0" stroke="none" d="M 519 272 C 519 262.6111584 590.6344320000001 255 679 255 C 767.3655679999999 255 839 262.6111584 839 272 C 839 281.3888416 767.3655679999999 289 679 289 C 590.6344320000001 289 519 281.3888416 519 272 Z" opacity="0.2"/></g><g transform="translate(-158,-174) scale(1,1)"><path fill="#ffffff" stroke="none" d="M 512 265 C 512 255.6111584 583.6344320000001 248 672 248 C 760.3655679999999 248 832 255.6111584 832 265 C 832 274.3888416 760.3655679999999 282 672 282 C 583.6344320000001 282 512 274.3888416 512 265 Z"/></g><g transform="translate(-158,-174) scale(1,1)"><path fill="none" stroke="#000000" d="M 512 265 C 512 255.6111584 583.6344320000001 248 672 248 C 760.3655679999999 248 832 255.6111584 832 265 C 832 274.3888416 760.3655679999999 282 672 282 C 583.6344320000001 282 512 274.3888416 512 265 Z" stroke-miterlimit="10"/></g><g transform="translate(-158,-174) scale(1,1)"><g><path fill="none" stroke="none"/><text fill="#000000" stroke="none" font-family="Arial" font-size="13px" font-style="normal" font-weight="bold" text-decoration="none" x="589.642333984375" y="270.5">CSU02 - Ordem de compra</text></g></g><g transform="translate(-158,-174) scale(1,1)"><path fill="none" stroke="#000000" d="M 226 375 L 599 283" stroke-miterlimit="10"/></g><g transform="translate(-158,-174) scale(1,1)"><path fill="#C0C0C0" stroke="none" d="M 519 336 C 519 326.6111584 590.7685498101563 319 679.299560546875 319 C 767.8305712835937 319 839.59912109375 326.6111584 839.59912109375 336 C 839.59912109375 345.3888416 767.8305712835937 353 679.299560546875 353 C 590.7685498101563 353 519 345.3888416 519 336 Z" opacity="0.2"/></g><g transform="translate(-158,-174) scale(1,1)"><path fill="#ffffff" stroke="none" d="M 512 329 C 512 319.6111584 583.7685498101563 312 672.299560546875 312 C 760.8305712835937 312 832.59912109375 319.6111584 832.59912109375 329 C 832.59912109375 338.3888416 760.8305712835937 346 672.299560546875 346 C 583.7685498101563 346 512 338.3888416 512 329 Z"/></g><g transform="translate(-158,-174) scale(1,1)"><path fill="none" stroke="#000000" d="M 512 329 C 512 319.6111584 583.7685498101563 312 672.299560546875 312 C 760.8305712835937 312 832.59912109375 319.6111584 832.59912109375 329 C 832.59912109375 338.3888416 760.8305712835937 346 672.299560546875 346 C 583.7685498101563 346 512 338.3888416 512 329 Z" stroke-miterlimit="10"/></g><g transform="translate(-158,-174) scale(1,1)"><g><path fill="none" stroke="none"/><text fill="#000000" stroke="none" font-family="Arial" font-size="13px" font-style="normal" font-weight="bold" text-decoration="none" x="594.635986328125" y="334.5">CSU03 - Ordem de venda</text></g></g><g transform="translate(-158,-174) scale(1,1)"><path fill="none" stroke="#000000" d="M 226 380 L 513 347" stroke-miterlimit="10"/></g><g transform="translate(-158,-174) scale(1,1)"><path fill="#C0C0C0" stroke="none" d="M 519 400 C 519 390.6111584 590.6344320000001 383 679 383 C 767.3655679999999 383 839 390.6111584 839 400 C 839 409.3888416 767.3655679999999 417 679 417 C 590.6344320000001 417 519 409.3888416 519 400 Z" opacity="0.2"/></g><g transform="translate(-158,-174) scale(1,1)"><path fill="#ffffff" stroke="none" d="M 512 393 C 512 383.6111584 583.6344320000001 376 672 376 C 760.3655679999999 376 832 383.6111584 832 393 C 832 402.3888416 760.3655679999999 410 672 410 C 583.6344320000001 410 512 402.3888416 512 393 Z"/></g><g transform="translate(-158,-174) scale(1,1)"><path fill="none" stroke="#000000" d="M 512 393 C 512 383.6111584 583.6344320000001 376 672 376 C 760.3655679999999 376 832 383.6111584 832 393 C 832 402.3888416 760.3655679999999 410 672 410 C 583.6344320000001 410 512 402.3888416 512 393 Z" stroke-miterlimit="10"/></g><g transform="translate(-158,-174) scale(1,1)"><g><path fill="none" stroke="none"/><text fill="#000000" stroke="none" font-family="Arial" font-size="13px" font-style="normal" font-weight="bold" text-decoration="none" x="565.79736328125" y="398.5">CSU04 - Carteira de investimentos</text></g></g><g transform="translate(-158,-174) scale(1,1)"><path fill="none" stroke="#000000" d="M 226 384 L 511 390" stroke-miterlimit="10"/></g><g transform="translate(-158,-174) scale(1,1)"><path fill="#C0C0C0" stroke="none" d="M 511 464 C 511 454.6111584 582.6344320000001 447 671 447 C 759.3655679999999 447 831 454.6111584 831 464 C 831 473.3888416 759.3655679999999 481 671 481 C 582.6344320000001 481 511 473.3888416 511 464 Z" opacity="0.2"/></g><g transform="translate(-158,-174) scale(1,1)"><path fill="#ffffff" stroke="none" d="M 504 457 C 504 447.6111584 575.6344320000001 440 664 440 C 752.3655679999999 440 824 447.6111584 824 457 C 824 466.3888416 752.3655679999999 474 664 474 C 575.6344320000001 474 504 466.3888416 504 457 Z"/></g><g transform="translate(-158,-174) scale(1,1)"><path fill="none" stroke="#000000" d="M 504 457 C 504 447.6111584 575.6344320000001 440 664 440 C 752.3655679999999 440 824 447.6111584 824 457 C 824 466.3888416 752.3655679999999 474 664 474 C 575.6344320000001 474 504 466.3888416 504 457 Z" stroke-miterlimit="10"/></g><g transform="translate(-158,-174) scale(1,1)"><g><path fill="none" stroke="none"/><text fill="#000000" stroke="none" font-family="Arial" font-size="13px" font-style="normal" font-weight="bold" text-decoration="none" x="611.62548828125" y="462.5">CSU05 - Cotacao</text></g></g><g transform="translate(-158,-174) scale(1,1)"><path fill="none" stroke="#000000" d="M 226 388 L 550 439" stroke-miterlimit="10"/></g><g transform="translate(-158,-174) scale(1,1)"><path fill="#ffffff" stroke="none" d="M 1208.4093503196023 369.68 C 1208.4093503196023 364.886167936 1212.2951926445478 361 1217.088623046875 361 C 1221.8820534492022 361 1225.7678957741477 364.886167936 1225.7678957741477 369.68 C 1225.7678957741477 374.473832064 1221.8820534492022 378.36 1217.088623046875 378.36 C 1212.2951926445478 378.36 1208.4093503196023 374.473832064 1208.4093503196023 369.68 Z"/></g><g transform="translate(-158,-174) scale(1,1)"><path fill="none" stroke="#000000" d="M 1208.4093503196023 369.68 C 1208.4093503196023 364.886167936 1212.2951926445478 361 1217.088623046875 361 C 1221.8820534492022 361 1225.7678957741477 364.886167936 1225.7678957741477 369.68 C 1225.7678957741477 374.473832064 1221.8820534492022 378.36 1217.088623046875 378.36 C 1212.2951926445478 378.36 1208.4093503196023 374.473832064 1208.4093503196023 369.68 Z" stroke-miterlimit="10"/></g><g transform="translate(-158,-174) scale(1,1)"><path fill="none" stroke="#000000" d="M 1217.088623046875 378.36 L 1217.088623046875 395.64" stroke-miterlimit="10"/></g><g transform="translate(-158,-174) scale(1,1)"><path fill="none" stroke="#000000" d="M 1207.8988048650567 384.84 L 1226.2784412286933 384.84" stroke-miterlimit="10"/></g><g transform="translate(-158,-174) scale(1,1)"><path fill="none" stroke="#000000" d="M 1217.088623046875 395.64 L 1204.3249866832386 413" stroke-miterlimit="10"/></g><g transform="translate(-158,-174) scale(1,1)"><path fill="none" stroke="#000000" d="M 1217.088623046875 395.64 L 1229.8522594105114 413" stroke-miterlimit="10"/></g><g transform="translate(-158,-174) scale(1,1)"><g><path fill="none" stroke="none"/><text fill="#000000" stroke="none" font-family="Arial" font-size="13px" font-style="normal" font-weight="bold" text-decoration="none" x="1208.779541015625" y="432">B3</text></g></g><g transform="translate(-158,-174) scale(1,1)"><path fill="none" stroke="#000000" d="M 745 283 L 1191 393" stroke-miterlimit="10"/></g><g transform="translate(-158,-174) scale(1,1)"><path fill="none" stroke="#000000" d="M 812 347 L 1191 396" stroke-miterlimit="10"/></g><g transform="translate(-158,-174) scale(1,1)"><path fill="none" stroke="#000000" d="M 825 440 L 1191 402" stroke-miterlimit="10"/></g><g transform="translate(-158,-174) scale(1,1)"><path fill="#C0C0C0" stroke="none" d="M 1015 280 C 1015 270.6111584 1057.0852288 263 1109 263 C 1160.9147712 263 1203 270.6111584 1203 280 C 1203 289.3888416 1160.9147712 297 1109 297 C 1057.0852288 297 1015 289.3888416 1015 280 Z" opacity="0.2"/></g><g transform="translate(-158,-174) scale(1,1)"><path fill="#ffffff" stroke="none" d="M 1008 273 C 1008 263.6111584 1050.0852288 256 1102 256 C 1153.9147712 256 1196 263.6111584 1196 273 C 1196 282.3888416 1153.9147712 290 1102 290 C 1050.0852288 290 1008 282.3888416 1008 273 Z"/></g><g transform="translate(-158,-174) scale(1,1)"><path fill="none" stroke="#000000" d="M 1008 273 C 1008 263.6111584 1050.0852288 256 1102 256 C 1153.9147712 256 1196 263.6111584 1196 273 C 1196 282.3888416 1153.9147712 290 1102 290 C 1050.0852288 290 1008 282.3888416 1008 273 Z" stroke-miterlimit="10"/></g><g transform="translate(-158,-174) scale(1,1)"><g><path fill="none" stroke="none"/><text fill="#000000" stroke="none" font-family="Arial" font-size="13px" font-style="normal" font-weight="bold" text-decoration="none" x="1039.872314453125" y="278.5">Mercado fracionário</text></g></g><g transform="translate(-158,-174) scale(1,1)"><path fill="none" stroke="#000000" d="M 1007 271 L 833 268" stroke-miterlimit="10" stroke-dasharray="3"/></g><g transform="translate(-158,-174) scale(1,1)"><path fill="none" stroke="#000000" d="M 843.2337317970297 263.96630027066186 L 833 268 L 843.0885975824094 272.3840847186388" stroke-miterlimit="10"/></g><g transform="translate(-158,-174) scale(1,1)"><g><path fill="none" stroke="none"/><text fill="#000000" stroke="none" font-family="Arial" font-size="13px" font-style="normal" font-weight="normal" text-decoration="none" x="892.5" y="303">«extend»</text></g></g><g transform="translate(-158,-174) scale(1,1)"><path fill="none" stroke="#000000" d="M 1007 285 L 810 311" stroke-miterlimit="10" stroke-dasharray="3"/></g><g transform="translate(-158,-174) scale(1,1)"><path fill="none" stroke="#000000" d="M 819.5245100955501 305.4969365404565 L 810 311 L 820.6260991655864 313.84359218650013" stroke-miterlimit="10"/></g><g transform="translate(-158,-174) scale(1,1)"><g><path fill="none" stroke="none"/><text fill="#000000" stroke="none" font-family="Arial" font-size="13px" font-style="normal" font-weight="normal" text-decoration="none" x="884.5" y="332">«extend»</text></g></g></g></svg>